<?xml version="1.0" standalone="no"?>
<!DOCTYPE svg PUBLIC "-//W3C//DTD SVG 20010904//EN"
 "http://www.w3.org/TR/2001/REC-SVG-20010904/DTD/svg10.dtd">
<svg version="1.0" xmlns="http://www.w3.org/2000/svg"
 width="700.000000pt" height="700.000000pt" viewBox="0 0 700.000000 700.000000"
 preserveAspectRatio="xMidYMid meet">
<metadata>
Created by potrace 1.11, written by Peter Selinger 2001-2013
</metadata>
<g transform="translate(0.000000,700.000000) scale(0.100000,-0.100000)"
fill="#000000" stroke="none">
<path d="M3298 6995 c-2 -1 -41 -6 -88 -9 -47 -4 -98 -9 -115 -11 -16 -2 -50
-7 -75 -10 -25 -3 -56 -7 -70 -10 -55 -11 -147 -27 -175 -32 -16 -2 -55 -11
-85 -20 -30 -8 -62 -16 -70 -18 -39 -8 -115 -30 -220 -65 -785 -260 -1432
-770 -1879 -1482 -177 -282 -331 -647 -415 -983 -25 -101 -32 -132 -42 -195
-3 -19 -9 -51 -14 -70 -5 -19 -11 -64 -15 -100 -4 -36 -9 -78 -11 -95 -16
-112 -21 -241 -19 -450 2 -132 6 -251 8 -265 3 -14 8 -52 11 -85 3 -33 8 -71
11 -85 4 -22 7 -42 21 -140 3 -19 10 -53 16 -75 5 -22 12 -47 13 -55 26 -119
93 -357 115 -405 6 -11 25 -62 45 -113 19 -51 55 -136 80 -188 25 -53 45 -97
45 -99 0 -26 310 -523 340 -545 3 -3 25 -31 49 -62 l42 -56 104 106 c56 59
126 132 155 162 29 30 150 156 269 279 119 124 232 241 251 261 77 79 468 486
515 535 28 29 149 155 270 280 121 126 236 245 255 265 19 20 123 128 230 239
107 112 220 229 250 261 30 31 150 155 265 275 116 120 235 244 265 275 30 32
147 153 260 270 113 117 228 236 255 265 28 28 140 145 250 260 110 114 225
234 255 265 60 62 444 462 525 545 327 339 440 458 443 464 3 8 -110 90 -223
163 -246 158 -524 289 -812 384 -117 38 -326 94 -408 109 -16 2 -41 7 -55 9
-35 7 -224 33 -290 41 -52 7 -526 15 -532 10z"/>
<path d="M6442 3499 c0 -1040 1 -1889 3 -1887 1 2 28 45 59 97 117 193 240
460 312 679 39 119 109 383 119 452 4 24 8 47 10 50 1 3 6 25 9 50 3 25 8 54
10 65 2 11 7 54 11 95 4 41 9 84 12 95 8 34 10 524 2 583 -4 31 -11 84 -14
117 -8 84 -12 115 -26 187 -6 35 -13 77 -16 93 -2 17 -18 84 -34 150 -17 66
-32 127 -34 135 -9 42 -89 269 -130 370 -40 98 -130 286 -177 370 -40 73 -110
190 -113 190 -2 0 -3 -851 -3 -1891z"/>
<path d="M5567 5208 c-91 -95 -196 -205 -234 -244 -152 -158 -476 -494 -545
-566 -40 -42 -161 -167 -268 -279 -107 -111 -217 -225 -244 -253 -49 -52 -369
-385 -592 -615 -67 -70 -146 -151 -175 -182 -30 -31 -144 -150 -254 -264 -110
-114 -220 -229 -245 -254 -369 -384 -473 -492 -515 -536 -27 -28 -142 -148
-255 -265 -113 -117 -225 -234 -250 -260 -25 -26 -142 -148 -261 -271 -383
-396 -419 -434 -419 -441 0 -13 175 -141 335 -244 224 -146 623 -324 885 -395
25 -7 50 -14 55 -15 49 -14 176 -45 200 -49 17 -3 66 -12 110 -20 110 -20 213
-34 315 -43 112 -9 470 -9 591 1 90 7 109 10 184 22 17 3 50 8 75 11 38 5 107
20 290 60 63 13 274 80 384 121 133 49 442 197 551 263 122 74 287 187 372
255 l83 65 -1 2285 c0 1257 -1 2285 -3 2285 -1 0 -77 -78 -169 -172z"/>
</g>
</svg>
