<?xml version="1.0" encoding="utf-8"?>
<!-- Generator: Adobe Illustrator 24.1.2, SVG Export Plug-In . SVG Version: 6.00 Build 0)  -->
<svg version="1.1" id="Layer_1" xmlns="http://www.w3.org/2000/svg" xmlns:xlink="http://www.w3.org/1999/xlink" x="0px" y="0px"
	 viewBox="0 0 24 24" style="enable-background:new 0 0 24 24;" xml:space="preserve">
<path d="M9,12.9c0,1.7,1.3,3,3,3s3-1.3,3-3s-1.3-3-3-3S9,11.2,9,12.9z M3.1,5.9h0.8c1.4,0,2.6-0.7,3.4-1.8l0.2-0.3
	c0.3-0.6,0.9-0.9,1.6-0.9h5.8c0.7,0,1.3,0.3,1.7,0.9l0.2,0.3c0.8,1.1,2,1.8,3.4,1.8H21c1.1,0,2,0.9,2,2.1v11c0,1.1-0.9,2.1-2.1,2.1
	H3.1C1.9,21,1,20,1,18.8V8.1C1,6.8,1.9,5.9,3.1,5.9z M20,10c0.6,0,1-0.4,1-1s-0.4-1-1-1s-1,0.4-1,1S19.4,10,20,10z M12,18
	c2.8,0,5-2.2,5-5s-2.2-5-5-5s-5,2.2-5,5S9.2,18,12,18z"/>
</svg>
