<?xml version="1.0" encoding="utf-8"?>
<!-- Generator: Adobe Illustrator 24.1.0, SVG Export Plug-In . SVG Version: 6.00 Build 0)  -->
<svg version="1.1" id="Layer_1" xmlns="http://www.w3.org/2000/svg" xmlns:xlink="http://www.w3.org/1999/xlink" x="0px" y="0px"
	 viewBox="0 0 792.1 103.3" style="enable-background:new 0 0 792.1 103.3;" xml:space="preserve">
<style type="text/css">
	.st0{fill:#C3E1E5;}
	.st1{fill:#AAD0D4;}
	.st2{fill:#68B8C1;}
	.st3{fill:#617C7E;}
</style>
<g id="Layer_2_1_">
	<g id="Layer_1-2">
		<path class="st0" d="M665,15.2c2.7-0.4,8.2-0.1,11-0.3c3.8-0.3,10.3-3.4,14.1-3.9c4.6-0.6,14.3,0.5,18.9-0.1
			c5.4-0.8,14.5-5.4,19.9-5.7c3.3-0.2,9.5,2.3,12.8,2.1c3.5-0.2,9.2-3.8,12.8-3.8c3.9-0.1,10.4,3.9,14.3,3.7C774.9,6.8,792,2,792,2
			v101.3H0V9.9c0,0,18.8,4.2,30.3,2.7S48.6,8.3,55,8.2c4.6-0.1,13,3.3,17.6,3.3c4.2,0,11.9-3,16.1-3.3c1.9-0.1,5.5,1,7.4,1
			c2.4,0,7.2-1.2,9.7-1c3.1,0.1,8.7,2.2,11.7,2.3c1.4,0.1,4.2-3,5.7-3c1.2,0,3.4,0.7,4.6,0.7s3.6-1,4.9-1c1.7,0,4.8,1,6.4,1
			c7.4,0.1,19.1-8.2,26.6-8.2c7,0.1,21,9.8,27.9,10.5c2.2,0.3,6.8-0.6,9.1-0.6c1.6,0,4.8,0.8,6.4,0.8c1.8,0,5.4-1,7.2-0.8
			c1.1,0.1,3,1.3,4.2,1.3c1.8,0,4.7-1.7,6.4-1.8c3.7,0,10.1,3.2,13.8,3.4c5.6,0.2,16.2-3,21.8-3.5c3-0.3,9,0.5,11.9,0.4
			c6.6-0.3,19.4-6.3,26-6.6c3.9-0.1,11.5,1,15.3,0.9c4.6-0.1,13.3-4.4,18-4.1s12.4,9.4,17,9.8c0.8,0.1,2.3-0.3,3-0.2
			c1.8,0.1,5,1.4,6.8,1.5c2.6,0.2,8-1,10.6-0.8c2.9,0.2,8.1,2.4,11,2.6c1.9,0.1,5.6-0.9,7.6-0.9c5,0,14.7,2.2,19.7,2.3
			c8.3,0.2,16.8-1.7,25-0.7c2.1,0.2,13.2,4.4,15.3,4.6c4.2,0.4,12.5-2.3,16.7-2c3.1,0.2,8.3,2.9,11.4,3.2c9.6,1,29.3-6.3,39-6.4
			c5.6,0,16.4,2.4,22,2.4c4.2,0,12.3-1.8,16.5-1.6c1.5,0,4.2,1,5.7,0.9c5.1-0.2,13.8-4.8,18.9-4.7c2.7,0,7.3,2.5,10,2.6
			c2,0.1,5.6-1.4,7.6-1.4c3.4,0.1,9.6,2.3,12.9,2.8c4,0.7,12.3,1.9,16.5,1.9s12.3-2.1,16.5-1.9c3.8,0.2,10.7,3.9,14.4,3.3
			C659.5,17,663,15.6,665,15.2z"/>
		<path class="st1" d="M127.6,103.3H52V24.1c0,0,16.2-5.1,22.2-5.3c6.9-0.2,19.9,3.8,26.6,4.8s9.7,3.7,26.8,3.2c0,0,32.5-8,44-7.9
			c5.5,0,15.2,3.4,20.6,3.9c4.7,0.4,14.4,0.7,19,0c5-0.8,13-5,17.8-5.9c24-4.8,24.8,3.9,31.2,6.9c5.6,2.3,11.4,4.3,17.3,5.9
			c9.6,2,21.4-2.3,29.5-5.8c3-1.3,13.5-4.2,17.3-4.3c24.6-0.3,20.7,3.8,28.5,7.1c4,1.7,15.6,4.4,20.5,4.8c26.8,1.9,22-1.9,31.2-4.8
			c3.7-1.1,8.1-2.9,12.3-3.2c4.9-0.4,13,0.9,17.9,1.5c8.2,1,25.2,0.6,33.5,0c3.6-0.3,10.4-1.8,14-2.1c8.7-0.7,26.7-1.6,35.1-0.3
			c5.4,0.8,13.8,5.3,19,6.5c11.2,2.2,22.6,3.5,34,4c28.2,0.4,85.4-1.2,112.5-6.1c5.6-1,23.3-10.9,28.1-8.9c18,7.6,9.2-1.3,30.2,11.1
			c2.9,1.7,7.8-5.5,15.6-2.8c2.9,1,9.4,5,11.9,3.7c8.7-4.6,24.7-4.8,23.4-2.5v75.5L127.6,103.3L127.6,103.3z"/>
		<path class="st2" d="M0,33.8v69.6h792V49.6c0,0-16-2-21-3.3c-3.1-0.8-8.2-3.9-11.5-4.2c-4.2-0.4-12.6,2.6-16.8,2.2
			c-5.7-0.6-14.3-6.7-20-7.2c-4.7-0.4-13.6,2.8-18.3,2.9c-6.2,0.2-15.7-5.6-28.3-6.2c-12.1-0.6-20.2-14.4-31-10.9
			c-9,2.9-22.6,8.6-33,7.2c-14.2-2-20.5,1.8-25.3,1.4c-7.3-0.6-8.4,2.6-11.7,3.7s-5,1.2-7.3,2.7c-2.9,1.8-5,3.6-7.4,3.7
			c-6.8,0.4-17.4-1.8-24.1-1.4c-5.7,0.4-15.3,1.7-21,1.8c-1.9,0-10.3-0.9-12.2-0.8c-3.6,0.2-7.7-1.2-11.3-0.9
			c-2.8,0.2-7.9-0.3-10.7-0.3c-4.3,0-11.8,3.6-16,3.6c-5.3,0-17.8,0.4-22.6-0.2C437,42.8,431,53.7,411,49.8
			c-18.3-3.6-26.2,6.1-41,5.4c-9.4-0.5-24.4-9-33.5-10.6c-4.5-0.8-14,0.5-18.5,0c-6.5-0.7-18-5.3-24.5-5.9c-6.2-0.5-18.8,2.1-25,1.5
			s-16.8-5.9-23-6.2c-6-0.3-17.4,3.7-23.5,3.7c-7.9,0-22.6-5.2-30.5-5.2c-4.6,0-13.4,2.9-18,2.8c-8.6-0.3-24.4-5.4-33-5.9
			c-11.5-0.6-34.7,4.5-46,3.1c-3.8-0.5-9.8-4-13.5-4.6c-2.8-0.4-8.7,0.4-11.5,0c-7.7-1.1-20.6-8-28.5-8.3c-10.8-0.4-41,8.3-41,8.3
			L0,33.8z"/>
		<path class="st3" d="M0,93.7c0,0,18.7-14.9,33-20.7s34-0.8,53-7.4c22.3-7.7,34.8-15.8,49-16.8c11.4-0.7,25.6,3.6,40.9,6.8
			c15.7,3.2,36.6,2.3,53,6.5c22.1,5.6,39.3,13.4,55,13.7c7.9,0.1,15.2-10.8,26.5-13.2s26.7,3.7,34.5,4.2c12.1,0.9,30.5,8.6,42,6.2
			c21-4.4,15.9-16.9,34.7-23.2c20.6-6.9,26.9-10.9,39.3-13.3c14.6-2.9,21.4-0.3,48,3.8c3.7,0.6,35.1-2.2,43-1
			c11.9,1.8,9.2,5.1,32,8.4c30.8,4.4,34.1,15,52,18c17.9,3,32.2-8.1,44-8.4c9.2-0.3,27.2,10.7,41.7,11.3c24,1,26.1,10.3,35.2,10.7
			c12.9,0.5,35.1-11.9,35.1-11.9v36H0V93.7z"/>
	</g>
</g>
</svg>
