<?xml version="1.0" standalone="no"?>
<!DOCTYPE svg PUBLIC "-//W3C//DTD SVG 20010904//EN"
 "http://www.w3.org/TR/2001/REC-SVG-20010904/DTD/svg10.dtd">
<svg version="1.0" xmlns="http://www.w3.org/2000/svg"
 width="1000.000000pt" height="1000.000000pt" viewBox="0 0 1000.000000 1000.000000"
 preserveAspectRatio="xMidYMid meet">
<metadata>
Created by potrace 1.14, written by Peter Selinger 2001-2017
</metadata>
<g transform="translate(0.000000,1000.000000) scale(0.100000,-0.100000)"
fill="#000000" stroke="none">
<path d="M2793 8423 c-130 -271 -173 -362 -324 -698 -55 -121 -112 -246 -127
-279 -15 -32 -27 -62 -27 -65 -1 -8 -51 -117 -71 -153 -8 -15 -14 -29 -14 -30
2 -4 -16 -51 -39 -101 -22 -48 -56 -126 -77 -177 -9 -19 -19 -44 -24 -55 -27
-62 -134 -316 -174 -415 -26 -63 -56 -134 -67 -157 -10 -24 -19 -45 -19 -48 0
-3 -9 -24 -20 -48 -10 -23 -44 -105 -75 -182 -31 -77 -60 -149 -65 -160 -5
-11 -53 -128 -106 -260 -53 -132 -101 -251 -107 -265 -5 -14 -11 -29 -12 -35
-4 -13 -63 -164 -75 -190 -5 -11 -30 -74 -56 -140 -42 -112 -76 -197 -168
-433 -20 -50 -36 -99 -36 -107 0 -8 -4 -15 -10 -15 -5 0 -10 -7 -10 -15 0 -8
-15 -54 -34 -103 -66 -169 -188 -495 -190 -506 -1 -6 -4 -15 -8 -21 -3 -5 -27
-68 -52 -140 -26 -71 -52 -139 -57 -150 -5 -11 -24 -63 -43 -115 -75 -212 -98
-276 -107 -295 -5 -11 -27 -72 -49 -135 -22 -63 -43 -122 -47 -130 -3 -8 -7
-19 -9 -25 -1 -5 -17 -48 -34 -95 -17 -47 -33 -89 -34 -95 -1 -5 -14 -41 -28
-80 -15 -38 -41 -110 -58 -160 -17 -49 -34 -97 -37 -105 -3 -8 -7 -19 -9 -25
-1 -5 -19 -55 -39 -110 -20 -55 -43 -118 -50 -140 -7 -22 -36 -105 -65 -185
-28 -80 -53 -149 -54 -155 -2 -5 -5 -17 -9 -25 -8 -23 -14 -44 -15 -50 0 -3
-7 -23 -17 -45 -9 -22 -21 -51 -25 -65 -4 -14 -11 -33 -15 -42 -7 -17 37 -18
839 -18 l846 0 15 36 c8 20 15 42 15 50 0 7 5 25 12 41 6 15 12 33 13 39 5 20
192 575 260 769 37 105 68 197 70 205 2 8 4 16 5 18 2 1 3 5 5 10 1 4 5 15 9
24 4 9 9 22 10 30 2 7 6 21 10 30 4 9 9 22 10 30 2 7 8 24 13 38 6 14 28 76
49 137 l38 113 1410 0 1411 0 27 -78 c15 -42 61 -176 103 -297 42 -121 80
-229 85 -240 8 -17 17 -45 27 -80 1 -5 16 -48 33 -95 17 -47 33 -92 35 -100 2
-8 4 -16 5 -17 2 -2 3 -6 5 -10 1 -5 5 -15 8 -23 3 -8 27 -78 52 -155 26 -77
50 -149 55 -160 12 -28 94 -288 94 -300 1 -13 1746 -19 1746 -7 0 8 -55 167
-126 367 -14 39 -26 75 -28 80 -2 6 -8 21 -13 35 -6 14 -14 40 -17 57 -4 18
-12 35 -17 38 -5 4 -9 14 -9 24 0 10 -7 32 -15 47 -8 16 -15 37 -15 46 0 9 -4
20 -10 23 -5 3 -10 16 -10 29 0 12 -3 26 -7 30 -5 4 -8 11 -9 14 0 4 -3 14 -7
22 -3 8 -20 56 -37 105 -17 50 -34 97 -37 105 -4 8 -7 18 -8 23 -2 4 -3 8 -5
10 -1 1 -3 9 -5 17 -2 8 -22 65 -45 125 -23 61 -43 117 -45 125 -4 13 -57 161
-126 350 -11 30 -25 63 -30 72 -5 10 -9 26 -9 36 0 10 -3 22 -7 25 -3 4 -14
28 -24 54 -9 27 -42 118 -73 203 -31 85 -60 164 -65 175 -13 31 -45 116 -101
270 -28 77 -55 149 -60 160 -5 11 -23 58 -40 105 -17 47 -34 94 -39 105 -5 11
-30 76 -56 145 -42 112 -103 270 -125 325 -31 77 -89 225 -145 370 -36 94 -70
179 -75 190 -28 61 -57 144 -52 149 3 3 0 6 -6 6 -7 0 -12 9 -12 19 0 11 -4
22 -9 25 -5 3 -12 18 -16 33 -5 23 -76 202 -106 268 -22 49 -220 531 -222 540
-2 6 -5 15 -9 20 -3 6 -22 48 -41 95 -19 47 -43 102 -51 122 -9 21 -15 39 -14
40 1 2 -5 17 -14 33 -18 33 -41 84 -83 185 -15 36 -38 89 -51 118 -13 29 -24
54 -24 57 0 3 -38 89 -80 180 -5 11 -29 65 -53 120 -25 55 -53 118 -62 140
-10 22 -19 42 -20 45 -1 3 -12 28 -24 55 -37 81 -44 100 -43 108 1 4 -2 7 -8
7 -5 0 -10 4 -10 9 0 5 -8 26 -17 47 -9 22 -16 42 -15 47 1 4 -2 7 -8 7 -5 0
-10 4 -10 10 0 8 -28 70 -144 323 -14 31 -38 83 -52 115 -24 51 -81 173 -162
344 l-27 58 -773 0 -773 0 -96 -197z m956 -1848 c5 -11 14 -33 21 -50 8 -16
14 -35 15 -40 2 -6 23 -62 48 -125 25 -63 71 -180 102 -260 31 -80 77 -197
102 -260 25 -63 53 -137 63 -165 10 -27 24 -63 31 -80 7 -16 13 -32 13 -35 1
-3 6 -18 13 -35 53 -136 324 -890 394 -1095 12 -36 26 -76 32 -90 13 -32 15
-40 23 -70 l5 -25 -1023 0 c-664 0 -1023 4 -1023 10 0 12 32 107 50 150 15 36
210 558 211 565 0 3 5 16 11 30 32 72 63 152 63 159 0 5 7 25 15 45 8 20 14
37 13 38 -1 2 5 14 12 28 8 14 15 31 16 38 1 8 9 28 17 45 8 18 33 84 56 147
23 63 47 123 52 134 6 10 12 26 14 35 2 9 36 99 75 201 40 102 73 190 74 195
2 6 8 24 15 40 6 17 19 50 28 75 9 25 20 49 25 54 4 6 8 20 8 31 0 12 3 25 8
29 4 4 7 11 8 14 0 4 8 24 17 46 9 21 17 40 17 42 0 1 5 15 12 31 6 15 12 30
13 33 4 12 17 46 25 65 10 24 64 168 66 175 0 3 4 12 7 20 4 8 23 59 42 113
57 161 47 165 131 -49 41 -104 78 -198 83 -209z"/>
<path d="M8960 3302 c-27 -2 -149 -20 -180 -27 -3 -1 -32 -9 -65 -20 -33 -10
-63 -18 -67 -17 -5 1 -8 -3 -8 -10 0 -6 -3 -8 -6 -5 -7 7 -104 -41 -115 -56
-3 -5 -10 -8 -15 -8 -5 1 -43 -23 -84 -53 -78 -56 -162 -136 -204 -196 -32
-46 -92 -167 -102 -205 -4 -17 -10 -34 -14 -40 -9 -13 -30 -120 -36 -193 -10
-108 -6 -251 11 -344 3 -16 7 -38 9 -51 11 -67 89 -250 119 -279 9 -10 17 -22
17 -27 0 -18 145 -158 206 -199 107 -72 265 -147 329 -157 11 -2 31 -6 45 -10
67 -17 95 -19 230 -20 146 0 192 7 325 48 189 58 390 203 494 356 33 48 114
213 109 224 0 1 8 38 18 82 13 59 18 121 19 235 0 224 -19 319 -96 477 -42 84
-65 117 -132 187 -45 46 -102 97 -127 112 -25 16 -47 31 -50 35 -10 12 -117
66 -182 92 -86 34 -157 51 -253 62 -22 2 -40 5 -40 5 0 3 -124 5 -155 2z"/>
</g>
</svg>
