<svg version="1" xmlns="http://www.w3.org/2000/svg" width="1333.333" height="1333.333" viewBox="0 0 1000.000000 1000.000000"><path d="M279.3 157.7c-15 31.1-21.3 44.9-21.3 46.3 0 .6-.4 1-1 1-.5 0-1 .5-1 1.1 0 .6-4.2 10.4-9.4 21.8-10.6 23.5-11 24.3-10.8 25.3.1.5-.2.8-.6.8-.5 0-1.5 1.9-2.2 4.2-.8 2.4-1.8 4.6-2.3 4.9-.4.3-.9 1.2-1.1 2-.1.8-1 3.2-2 5.4-1.8 4-3.4 7.7-5.4 12.5-1.4 3.3-4.4 10.2-7.2 16.5-1.2 2.7-2.8 6.6-3.6 8.5-.9 1.9-1.9 4.4-2.4 5.5-3 6.8-13.5 31.8-17.4 41.5-2.6 6.3-5.3 12.6-6 14-.8 1.4-1.4 2.7-1.4 3-.1.7-2.1 6-3.7 9.5-.8 1.6-3.9 9.3-7 17-3.1 7.7-6 14.9-6.5 16-.5 1.1-1.9 4.5-3 7.5-1.2 3-2.6 6.4-3.1 7.5-.5 1.1-3.8 9.4-7.5 18.5-3.6 9.1-7.1 17.6-7.7 19-.6 1.4-1.1 2.8-1.2 3.2-.2.5-.4 1-.5 1.3-.1.3-.3.8-.5 1.2-.1.5-.7 2.1-1.4 3.8-.6 1.6-1.7 4.3-2.3 6-1.8 4.9-4.8 11.9-5.8 13.7-.6 1-1 2.2-1 2.7s-.5 2.2-1.2 3.8c-.6 1.5-1.2 3-1.3 3.3-.1.3-.7 1.8-1.4 3.5-.7 1.6-1.4 3.4-1.5 4-.2.5-.7 1.9-1.1 3-3.1 7.4-13 32.9-14.3 37-.9 2.7-1.9 5.2-2.3 5.5-.3.3-.9 1.8-1.3 3.5-.4 1.6-1.5 4.7-2.5 7-1 2.2-2.3 5.3-2.9 7-.6 1.6-4.5 12.2-8.7 23.4-4.3 11.2-7.8 20.9-7.9 21.5-.1.6-.4 1.5-.8 2.1-.3.5-2.7 6.8-5.2 14-2.6 7.1-5.2 13.9-5.7 15-.5 1.1-2.4 6.3-4.3 11.5-7.4 20.9-9.8 27.6-10.6 29.5-.5 1.1-3 7.8-5.5 15-2.5 7.1-4.9 13.7-5.2 14.5-.3.8-.7 1.9-.9 2.5-.5 1.8-4.5 12.9-5.4 15-.9 2.2-4.1 10.9-9.5 26.5-2 5.8-4 11.4-4.5 12.5-1.9 4.7-15.4 43.7-16.5 47.5-.4 1.4-1.1 2.9-1.5 3.5-.4.5-1.1 2.3-1.5 4-1 3.7-.9 3.4-2.3 6.8-.7 1.6-1.2 3.3-1.2 3.9 0 .5-.6 2.4-1.4 4.1-.8 1.8-1.9 4.5-2.4 6.2-.5 1.6-1.3 3.8-1.7 4.7-.7 1.7 3.7 1.8 83.9 1.8H169l1.5-3.6c.8-2 1.5-4.2 1.5-5 0-.7.5-2.5 1.2-4.1.6-1.5 1.2-3.3 1.3-3.9.5-2 19.2-57.5 26-76.9 3.7-10.5 6.8-19.7 7-20.5.2-.8.4-1.6.5-1.8.2-.1.3-.5.5-1 .1-.4.5-1.5.9-2.4.4-.9.9-2.2 1-3 .2-.7.6-2.1 1-3 .4-.9.9-2.2 1-3 .2-.7.8-2.7 1.5-4.3 1.3-3.1 5.1-14.2 5.6-16 .1-.6.7-2.3 1.3-3.8.7-1.6 1.2-3.3 1.2-3.8s54.3-.9 141.3-.9h141.2l2.7 7.8c1.5 4.2 6.1 17.6 10.3 29.7 4.2 12.1 8 22.9 8.5 24 .8 1.7 1.7 4.5 2.7 8 .1.5 1.6 4.8 3.3 9.5 1.7 4.7 3.3 9.2 3.5 10 .5 1.5 11.8 34.3 12.8 37 1.3 3.6 9.1 28.6 9.1 29.5.1.7 30.1 1.1 87.5 1.3l87.3.2-.5-2.2c-.3-1.3-2.6-8.2-5.1-15.3-7.8-21.6-9.7-27-9.9-28-.2-.6-1.1-3.3-2.1-6-1-2.8-2.9-8.2-4.3-12-1.3-3.9-2.8-7.8-3.4-8.7-.5-1-.9-2.6-.9-3.6s-.3-2.2-.7-2.6c-.5-.4-.8-1.1-.9-1.4 0-.4-.3-1.4-.7-2.2-.3-.8-2-5.6-3.7-10.5-1.7-5-3.4-9.7-3.7-10.5-.4-.8-.7-1.8-.8-2.3-.2-.4-.3-.8-.5-1-.1-.1-.3-.9-.5-1.7-.2-.8-2.2-6.5-4.5-12.5-2.3-6.1-4.3-11.7-4.5-12.5-.4-1.3-5.7-16.1-12.6-35-1.1-3-2.5-6.3-3-7.2-.5-1-.9-2.5-.9-3.3 0-.8-.4-2.3-.9-3.3-1-1.6-3.9-9.4-11.6-30.7-1.9-5.5-3.9-10.7-4.2-11.5-.3-.8-.7-1.7-.8-2-.1-.3-.7-1.8-1.3-3.3-.7-1.6-1.2-3.4-1.2-4.1 0-.7-.3-1.6-.7-2-.5-.4-.8-1.1-.9-1.4-.1-.8-.9-3-3-8.2-2.9-7.4-6.6-17.6-6.9-19.4-.3-1-.8-2.3-1.3-3-.5-.6-2.1-4.7-3.7-9.1-1.5-4.4-3.3-9.4-4-11-.7-1.7-3.4-8.6-6-15.5-4.5-11.9-10.7-28.2-12.5-32.5-1.7-4.2-5.5-14-5.6-14.5 0-.3-.6-1.6-1.2-3s-4.1-10.2-7.7-19.5c-3.6-9.4-7-17.9-7.5-19-1.3-2.7-5.2-12.8-5.4-14-.1-.6-1.2-3.1-2.4-5.7s-2.2-5-2.2-5.3c0-.8-8.9-22.6-10.5-25.5-.7-1.4-1.3-2.7-1.3-3-.1-.3-.5-1.6-1-3-.6-1.4-2-5-3.1-8-1.2-3-2.6-6.4-3.1-7.5-1.7-3.5-13.1-31-13.3-32-.2-.6-.5-1.5-.9-2-.3-.6-2.2-4.8-4.1-9.5-1.9-4.7-4.3-10.2-5.1-12.2-.9-2.1-1.5-3.9-1.4-4 .1-.2-.5-1.7-1.4-3.3-1.8-3.3-4.1-8.5-8.3-18.5-1.5-3.6-3.3-7.9-4-9.5-.8-1.7-5-11.2-9.4-21.2s-8.8-19.9-9.7-22c-1-2.1-1.8-4-1.9-4.3-.1-.3-.8-2.1-1.7-4-.9-1.9-3.8-8.5-6.6-14.7-6.7-14.9-7.3-16.3-12.6-27.7-2.5-5.4-4.6-10-4.6-10.1 0-.2-2.5-5.5-5.5-12-3-6.4-5.5-11.8-5.5-12 0-.2-3.2-7-7.1-15.2-3.8-8.1-8.2-17.4-9.7-20.5l-2.7-5.8H288.9l-9.6 19.7zm88.1 165.8c.2.5.8 2.3 1.5 3.9.6 1.5 2.5 6.3 4.2 10.5 1.7 4.2 3.5 8.7 4.2 10.1.6 1.4 1.1 2.7 1.2 3 .4 1.7 1.9 5.9 3 8.5.7 1.6 2.5 5.9 3.8 9.5 3.2 8.3 12.5 32.1 18.4 47 2.5 6.3 5.3 13.7 6.3 16.5 1 2.7 2.4 6.3 3 8 .7 1.6 1.4 3.4 1.6 4 .9 3.2 3.1 8.6 3.7 9.1.4.4.7 1.6.7 2.6s.4 2.6 1 3.6c1.1 1.9 4.3 10.5 12 32.2 2.9 8 6.8 18.8 8.7 24 1.9 5.2 3.6 10.2 3.8 11 .2.8.9 2.8 1.5 4.5.7 1.6 3.6 10 6.6 18.5 3 8.5 5.7 16.2 6.1 17 .8 2.1 1.2 3.1 1.9 6l.5 2.5H358.8c-66.4 0-102.3-.4-102.3-1 0-1.2 3.2-10.7 5-15 1.5-3.6 21-55.8 21.1-56.5 0-.3.5-1.6 1.1-3 2.3-5.2 5.3-12.8 6.7-17.2.9-2.5 2.3-6.3 3.3-8.4.9-2.1 1.8-4.5 1.9-5.2.1-.8.9-2.8 1.7-4.5.8-1.8 3.3-8.4 5.6-14.7 2.3-6.3 4.9-12.7 5.7-14.3.8-1.5 1.3-2.7.9-2.7-.3 0 .3-1.7 1.4-3.8 1-2 1.9-3.9 1.9-4.2.1-.7.4-1.5 6.3-17 2.8-7.4 5.2-14 5.3-14.5.2-.6.8-2.4 1.5-4 .6-1.7 1.9-5 2.8-7.5.9-2.5 2-4.9 2.5-5.4.4-.6.8-2 .8-3.1 0-1.2.3-2.5.8-2.9.4-.4.7-1.1.8-1.4 0-.4.8-2.4 1.7-4.6.9-2.1 1.7-4 1.7-4.2 0-.1.5-1.5 1.2-3.1.6-1.5 1.2-3.1 1.3-3.6.2-.4.4-.9.5-1.2.1-.3.3-.8.5-1.3.1-.4.7-2.1 1.4-3.7 1.7-4.3 6.5-16.9 6.7-17.5 0-.3.4-1.4.9-2.5 2.2-5.5 5.4-14.3 6-16.5.4-1.4 1.4-3.8 2.2-5.4l1.5-2.8 4 9.8c2.2 5.5 4.1 10.3 4.2 10.9zM898.8 669.5c-.2.2-3.2.5-6.8.8-8 .7-10.6 1.2-19.5 3.8-7.1 2.1-12.8 4.3-15.5 5.9-.8.5-3.3 1.9-5.4 3-33.3 18-49.2 51.4-45.2 94.5.3 3.8.8 8.2 1.1 9.7.3 1.6.7 3.8.9 5.1.9 5.6 8.6 24.6 11.1 27.3.5.7 1.9 2.5 3 4 10.2 14.6 34.2 30.2 53.9 35 3.4.8 7 1.7 8.1 2 1.1.3 7.9.8 15 1 15.7.4 28.9-1.7 40.5-6.3.8-.4 1.7-.7 2-.7 3.3-.7 21.2-11.1 21.8-12.7.2-.5.9-.9 1.6-.9.6 0 4.3-3.1 8.2-6.8 7-6.8 13.5-15.5 16.6-22.2 3.4-7.3 5.7-13 5.3-13-.3 0 0-1.1.5-2.6 1-2.5 1.4-4.6 3-13.9.9-5.4.6-32.1-.4-37-4.2-19.4-10.3-32.6-20.5-43.6-3.8-4.2-9.6-9.3-12.8-11.5-3.2-2.1-6-4.2-6.3-4.5-1-1.2-11.8-6.6-18.2-9.2-8.1-3.2-13.4-4.6-24.3-6.2-4.2-.6-17.3-1.3-17.7-1z"/></svg>