<?xml version="1.0" encoding="utf-8"?>
<!-- Generator: Adobe Illustrator 22.0.1, SVG Export Plug-In . SVG Version: 6.00 Build 0)  -->
<svg version="1.1" id="Layer_1" xmlns="http://www.w3.org/2000/svg" xmlns:xlink="http://www.w3.org/1999/xlink" x="0px" y="0px"
	 viewBox="0 0 389 500" style="enable-background:new 0 0 389 500;" xml:space="preserve">
<style type="text/css">
	.st0{fill:#FFFFFF;}
</style>
<title>500px</title>
<g id="Layer_2_1_">
	<g id="Layer_1-2">
		<path class="st0" d="M68,328.5c0.1,0.3,2.7,7.5,4.2,11c35.1,83.3,131.2,122.4,214.5,87.3S409.1,295.7,374,212.3
			c-25.6-60.7-85.1-100.2-151-100.1c-22.2,0-44.1,4.3-64.6,12.8c-15.9,6.7-42.8,24.1-58.6,40.3l-0.1,0.1V30.7H326
			c8.2-0.1,8.2-11.6,8.2-15.4s0-15.3-8.2-15.4H81.3c-5.9,0-10.7,4.8-10.8,10.7v189.6c0,6.1,7.6,10.5,14.7,12.1
			c13.8,2.9,17-1.5,20.4-6.1l0.4-0.6c5.2-7.7,21.3-23.9,21.5-24.1c51.8-52.8,136.5-53.6,189.2-1.8s53.6,136.5,1.8,189.2
			c-0.4,0.4-0.9,0.9-1.3,1.3c-24.9,24.9-59.5,39.1-95.2,39.1c-23.8,0.1-47.1-6.3-67.4-18.6l0.1-115.3c0-15.4,6.7-32.1,17.8-44.7
			c12.5-14.3,30.6-22.5,49.6-22.4c18.3-0.1,35.9,7,48.9,19.9c12.8,12.6,20,29.8,19.9,47.7c0,38.5-30.3,68.7-69,68.7
			c-7.5,0-21-3.3-21.6-3.4c-7.8-2.3-11.1,8.5-12.2,12.1c-4.2,13.7,2.1,16.5,3.4,16.9c10.1,3.3,20.7,4.9,31.3,4.6
			c54.7-0.1,99-44.4,99-99c0-54.2-44.4-98.3-98.9-98.3c-26.4-0.1-51.8,10.2-70.7,28.8c-18,17.7-28.3,41.2-28.3,64.6v0.6
			c-0.1,2.9-0.1,72-0.2,94.7l-0.1-0.1c-10.3-11.4-20.4-28.8-27.1-46.5c-2.6-7-8.6-5.7-16.7-3.2c-3.6,1.1-14.3,4.4-12,12.2L68,328.5z
			 M184.3,301.5c0,3.3,3.1,6.2,4.9,8l0.6,0.5c3.1,3,6.1,4.6,8.8,4.6c1.5,0,3-0.5,4.1-1.5c1.4-1.3,16.8-17,18.3-18.5l17.3,17.2
			c1.3,1.7,3.3,2.7,5.4,2.8c2.8,0,5.8-1.6,8.9-4.9c7.4-7.6,3.7-11.7,1.9-13.7L237,278.5l18.2-18.4c4-4.3,0.5-8.9-3.1-12.4
			c-5.1-5.1-10-6.4-13.2-3.5l-18.1,18.2L202.5,244c-0.9-0.9-2.2-1.4-3.5-1.4c-2.4,0-5.3,1.6-8.6,4.9c-5.6,5.6-6.9,9.5-3.9,12.7
			l18.3,18.3l-18.2,18.3C185.2,297.9,184.4,299.6,184.3,301.5L184.3,301.5z M224.3,53.6c-29.3,0-60.5,5.9-83.4,15.8
			c-2.4,0.9-4.1,3.1-4.2,5.7c-0.3,2.6,0.4,6,2.2,10.5c1.4,3.6,5.2,13.3,12.5,10.5c23.4-8.9,49.4-13.9,73-13.9
			c26.5,0,52.7,5.2,77.1,15.6c19.4,8.2,37.7,20.1,57.6,37.3c1.2,1.2,2.9,1.8,4.6,1.9c3.9,0,7.6-3.8,10.8-7.4c5.3-6,9-10.9,3.7-15.9
			c-19-18-39.9-31.5-65.6-42.3C284.6,59.6,254.6,53.5,224.3,53.6L224.3,53.6z M382.3,415.6L382.3,415.6c-3.5-3.5-6.5-5.6-9.2-6.4
			c-2.4-0.8-5.1-0.2-6.9,1.6l-1.7,1.7C287.4,489.9,162.2,490,85,412.9c-0.1-0.1-0.2-0.2-0.3-0.3c-18.9-18.9-33.2-40.1-42.4-62.9
			c-5.9-14.3-10.2-29.2-12.9-44.4c-0.1-0.5-0.2-0.9-0.2-1.2c-1.2-6.5-7.2-6.9-15.7-5.6c-3.6,0.5-14.4,2.2-13.4,10v0.2
			C19.8,432.6,136.3,517,260.2,497.3c47.4-7.5,91.1-29.9,125-63.8c0,0,1.2-1.2,1.8-1.9C389.4,429.1,391.4,424.7,382.3,415.6
			L382.3,415.6z"/>
	</g>
</g>
</svg>
