<svg xmlns="http://www.w3.org/2000/svg" viewBox="0 0 1000.06 723.6"><path d="M558.27,723.6q-12-37.49-25.92-77.25t-27.81-79.62H222.42q-13.75,39.74-27.51,79.52T169.23,723.6H0Q40.8,606.66,77.44,507.45t71.69-186.89Q184.19,232.84,218.22,154T288.85,0h154.7q35.63,75.2,70.19,154T583.4,320.56q35.1,87.7,71.77,186.89T732.7,723.6ZM358.81,164q-5.35,15.49-15.81,42.63t-23.85,62.73q-13.38,35.58-29.87,78.29t-33.55,89.58h206q-16.55-47-32-89.78T400.29,269.1q-13.95-35.48-24.5-62.62T358.81,164Z"/><path d="M1000.06,627.45q0,47-29.77,71.59T902.91,723.6q-37.62,0-67.38-24.56t-29.78-71.59q0-47,29.78-71.58t67.38-24.56q37.59,0,67.38,24.56T1000.06,627.45Z"/></svg>