<?xml version="1.0" encoding="utf-8"?>
<svg version="1.1" id="Layer_1" xmlns="http://www.w3.org/2000/svg" xmlns:xlink="http://www.w3.org/1999/xlink" x="0px" y="0px"
	 viewBox="0 0 1000.1 723.6" style="enable-background:new 0 0 1000.1 723.6;" xml:space="preserve">
<style type="text/css">
	.st0{fill:#2E2E2E;}
</style>
<path class="st0" d="M558.3,723.6c-8-25-16.6-50.7-25.9-77.2c-9.3-26.5-18.5-53-27.8-79.6H222.4c-9.2,26.5-18.3,53-27.5,79.5
	s-17.7,52.3-25.7,77.3H0c27.2-78,53-150,77.4-216.1s48.3-128.4,71.7-186.9c23.4-58.5,46.4-114,69.1-166.6S264.4,50.1,288.9,0h154.7
	c23.8,50.1,47.1,101.5,70.2,154c23,52.5,46.3,108.1,69.7,166.6c23.4,58.5,47.3,120.8,71.8,186.9s50.3,138.2,77.5,216.1H558.3z
	 M358.8,164c-3.6,10.3-8.8,24.5-15.8,42.6c-7,18.1-14.9,39-23.9,62.7c-8.9,23.7-18.9,49.8-29.9,78.3c-11,28.5-22.2,58.3-33.6,89.6
	h206c-11-31.3-21.7-61.3-32-89.8c-10.3-28.5-20.1-54.6-29.4-78.4c-9.3-23.7-17.5-44.5-24.5-62.6S363.1,174.2,358.8,164z"/>
<path class="st0" d="M1000.1,627.5c0,31.3-9.9,55.2-29.8,71.6s-42.3,24.6-67.4,24.6c-25.1,0-47.5-8.2-67.4-24.6
	c-19.8-16.4-29.8-40.2-29.8-71.6c0-31.3,9.9-55.2,29.8-71.6c19.9-16.4,42.3-24.6,67.4-24.6c25.1,0,47.5,8.2,67.4,24.6
	C990.1,572.2,1000.1,596.1,1000.1,627.5z"/>
</svg>
