<svg xmlns="http://www.w3.org/2000/svg" xmlns:xlink="http://www.w3.org/1999/xlink" viewBox="0 0 301.12 299.55"><defs><style>.cls-1,.cls-3{fill:none;}.cls-2{fill:#414141;}.cls-3{stroke:#fff;stroke-miterlimit:10;stroke-width:30px;}.cls-4{clip-path:url(#clip-path);}.cls-5{fill:#60b746;}.cls-6{fill:#f58220;}.cls-7{fill:#df3a40;}.cls-8{fill:#963f98;}.cls-9{fill:#fab621;}.cls-10{fill:#0395cf;}.cls-11{fill:#fff;}</style><clipPath id="clip-path"><circle class="cls-1" cx="149.79" cy="149.78" r="149.77"/></clipPath></defs><title>Asset 15</title><g id="Layer_2" data-name="Layer 2"><g id="Layer_1-2" data-name="Layer 1"><circle class="cls-2" cx="149.77" cy="149.77" r="149.77"/><line class="cls-3" x1="250.8" y1="48.75" x2="250.8" y2="279.53"/><g class="cls-4"><g class="cls-4"><polygon class="cls-5" points="58.31 177 301.12 155.62 301.12 143.88 58.31 177"/><polygon class="cls-6" points="58.31 177 301.12 166.2 300.79 177 58.31 177"/><polygon class="cls-7" points="58.31 177 300.79 177 300.79 188.9 58.31 177"/><polygon class="cls-8" points="58.31 177 300.79 188.9 299.56 200.69 58.31 177"/><polygon class="cls-9" points="58.31 177 301.12 155.62 301.12 166.2 58.31 177"/><polygon class="cls-10" points="58.31 177 299.56 200.69 295.53 211.64 58.31 177"/></g><line class="cls-3" x1="43.53" y1="256.04" x2="256.04" y2="43.52"/><polygon class="cls-11" points="1.78 174.45 58.31 176.95 1.78 179.45 1.78 174.45"/></g></g></g></svg>